# xmcd
# Track frame offsets:
# 150
# 17436
# 36194
# 49820
# 60967
# 75686
# 99799
# 110754
# 126028
# 141965
# 160604
# 174603
# 194588
# 207578
# 221378
# 236359
# 256909
# 273419
# 286394
# 307624
# 326237
#
# Disc length: 4583 seconds
# Revision: 0
# Processed by: cddbd v1.5.2PL0 Copyright (c) Steve Scherf et al.
# Submitted via: VisiTrax 2.11.2.271 - For more info visit www.synapsa.com
#
DISCID=2311e515
DTITLE=Various Artist - Country Raio Singles No. 161
DYEAR=2012
DGENRE=Country
TTITLE0=Coleman, Kathy - Dunedoo Station
TTITLE1=Friend, Lance - Once a Month Weekend
TTITLE2=Heartleys, The - Talk to Me
TTITLE3=Anderson, Neville - Nothin'Takes You Off My Mind
TTITLE4=Emmanuel, Jesse - When
TTITLE5=Rhymer from Ryde, The - Barbie Town
TTITLE6=Reynolds, Dave - You Make A Hard Life Good
TTITLE7=Bruce, Doug - Made That Way
TTITLE8=Williams, J R - Far Nth Quensland Tropical Blues
TTITLE9=Carter and Carter - To the Moon and Back
TTITLE10=Jansen, Stephanie - Life You Made, The
TTITLE11=Walker, Michelle - Soul Lover
TTITLE12=Willems, Bryen - Hello Beer
TTITLE13=O'Dea, John - Next to Slim
TTITLE14=Brothers3 - Home is Where the Heart Is
TTITLE15=Eales, Steve - Long Way Here, The
TTITLE16=Fisher, Chris - Many Things
TTITLE17=Stewart, Todd - Rodeo Town
TTITLE18=Williams, Nathan - Without You
TTITLE19=Hollis, Jasper - Buckwild
TTITLE20=Lawrence, Amber - Try
EXTD=
EXTT0=
EXTT1=
EXTT2=
EXTT3=
EXTT4=
EXTT5=
EXTT6=
EXTT7=
EXTT8=
EXTT9=
EXTT10=
EXTT11=
EXTT12=
EXTT13=
EXTT14=
EXTT15=
EXTT16=
EXTT17=
EXTT18=
EXTT19=
EXTT20=
PLAYORDER=
